<?xml version="1.0" standalone="no"?>
<!DOCTYPE svg PUBLIC "-//W3C//DTD SVG 20010904//EN"
 "http://www.w3.org/TR/2001/REC-SVG-20010904/DTD/svg10.dtd">
<svg version="1.0" xmlns="http://www.w3.org/2000/svg"
 width="3125.000000pt" height="340.000000pt" viewBox="0 0 3125.000000 340.000000"
 preserveAspectRatio="xMidYMid meet">

<g transform="translate(0.000000,340.000000) scale(0.100000,-0.100000)"
fill="#000000" stroke="none">
<path d="M4955 2918 c-2 -7 -6 -52 -10 -101 -7 -114 -1 -127 68 -127 60 0 72
-6 85 -40 5 -14 8 -325 8 -706 -1 -644 -2 -683 -19 -702 -10 -11 -35 -23 -55
-26 -20 -4 -50 -9 -65 -12 l-28 -6 3 -101 3 -102 309 -3 c219 -2 313 1 322 9
19 16 20 192 1 207 -7 6 -42 12 -77 14 l-65 3 0 350 c0 319 2 354 19 399 40
105 134 166 255 166 109 0 158 -30 191 -117 19 -50 20 -78 20 -412 0 -402 4
-383 -75 -396 -94 -15 -86 -3 -83 -118 l3 -102 320 0 320 0 3 90 c4 136 5 135
-78 135 l-70 0 0 329 c0 181 -5 375 -10 432 -23 229 -94 330 -277 399 -19 7
-82 13 -146 13 -92 0 -124 -4 -177 -23 -71 -25 -129 -61 -174 -109 -17 -17
-33 -31 -38 -31 -4 0 -8 153 -8 340 0 325 -1 340 -19 350 -30 16 -450 14 -456
-2z"/>
<path d="M7326 2815 c-269 -45 -476 -191 -586 -413 -73 -149 -102 -299 -102
-530 0 -181 4 -214 44 -362 70 -265 253 -446 528 -521 77 -21 105 -23 290 -23
238 0 350 20 486 85 l29 14 3 236 2 235 -131 13 c-111 12 -133 12 -140 0 -5
-8 -9 -68 -9 -135 0 -134 -2 -137 -70 -165 -45 -18 -288 -18 -345 0 -74 23
-129 56 -181 106 -72 71 -102 131 -145 290 -19 69 -19 421 -1 490 53 194 130
308 245 363 99 47 126 52 263 52 101 -1 137 -5 164 -18 l35 -17 5 -132 c3 -72
8 -134 12 -138 3 -4 66 -3 140 2 l133 8 3 226 c3 250 7 234 -68 264 -188 74
-419 101 -604 70z"/>
<path d="M722 2793 l-72 -4 2 -227 3 -227 85 -7 c47 -3 108 -8 135 -10 l50 -3
3 85 c4 118 6 120 149 120 l113 0 0 -630 0 -630 -27 -17 c-17 -12 -54 -20
-102 -23 l-76 -5 -5 -104 c-4 -90 -3 -104 12 -112 10 -5 175 -8 380 -7 l363 3
0 115 c0 94 -3 115 -15 117 -8 1 -54 5 -102 8 l-88 7 0 623 c0 343 3 630 6
639 5 13 24 16 108 16 135 0 137 -2 145 -116 l6 -89 30 1 c17 1 76 5 133 9 98
8 103 9 109 33 8 33 -2 420 -11 430 -8 7 -1203 12 -1334 5z"/>
<path d="M16208 2640 l-78 -5 -40 -80 c-83 -163 -116 -191 -265 -230 -9 -2
-35 -140 -35 -183 0 -8 21 -12 64 -12 35 0 78 -3 95 -6 l31 -6 0 -422 c1 -451
4 -491 52 -585 27 -51 76 -89 158 -123 49 -20 73 -23 210 -23 145 0 160 2 230
28 41 15 84 35 95 43 20 15 20 15 -9 97 -15 45 -34 92 -42 104 l-13 21 -43
-21 c-58 -29 -200 -31 -240 -4 -64 44 -63 32 -66 476 -3 325 -1 406 10 412 7
5 81 9 164 9 l152 0 12 99 c7 54 10 106 7 115 -6 14 -29 16 -176 16 -145 0
-170 2 -175 16 -3 9 -6 71 -6 139 0 68 -3 125 -7 127 -5 2 -43 1 -85 -2z"/>
<path d="M17550 2534 c-89 -8 -237 -60 -294 -104 -157 -121 -222 -268 -196
-440 13 -81 15 -90 51 -164 22 -45 51 -78 123 -140 41 -34 137 -81 221 -106
123 -38 131 -40 150 -40 20 0 80 -17 107 -31 10 -5 22 -9 28 -9 24 0 124 -54
154 -83 51 -50 69 -93 70 -163 0 -87 -37 -137 -139 -187 -66 -33 -162 -46
-253 -36 -155 17 -234 65 -378 232 l-50 58 -36 -43 c-20 -24 -57 -65 -82 -93
-25 -27 -45 -59 -46 -69 0 -30 175 -197 245 -233 123 -63 249 -93 396 -93 151
0 277 33 385 102 56 35 84 60 134 124 17 21 51 90 71 143 18 48 18 250 0 287
-8 16 -19 40 -25 54 -18 40 -113 131 -177 170 -91 54 -168 83 -344 130 -167
44 -242 77 -290 124 -103 104 -73 268 61 336 133 67 273 65 405 -6 49 -27 179
-154 179 -175 0 -17 13 -8 99 71 88 81 95 98 59 146 -49 65 -179 174 -207 174
-6 0 -19 4 -29 9 -34 17 -68 29 -112 40 -51 11 -212 20 -280 15z"/>
<path d="M19130 2530 c-99 -12 -146 -25 -227 -61 -24 -10 -45 -19 -48 -19 -18
0 -139 -93 -196 -149 -67 -66 -143 -176 -169 -241 -7 -19 -17 -39 -22 -44 -4
-6 -8 -20 -8 -32 0 -13 -4 -25 -9 -28 -9 -6 -15 -32 -32 -156 -12 -83 -5 -304
11 -356 5 -19 15 -51 21 -71 15 -51 39 -107 85 -193 26 -49 111 -145 177 -201
313 -263 791 -250 1089 29 74 70 158 177 158 201 0 6 3 11 8 11 4 0 13 15 20
33 8 17 17 41 22 52 61 151 84 341 59 494 -34 212 -105 360 -237 495 -83 85
-256 196 -306 196 -8 0 -18 5 -21 10 -3 6 -17 10 -31 10 -14 0 -33 4 -42 9
-25 12 -226 20 -302 11z m214 -251 c149 -38 186 -59 281 -154 118 -117 170
-235 182 -413 20 -288 -138 -556 -377 -636 -115 -38 -263 -40 -365 -5 -125 44
-244 145 -308 260 -107 191 -106 477 0 669 56 101 143 185 239 231 44 21 91
39 105 40 13 0 33 4 44 9 29 12 150 12 199 -1z"/>
<path d="M26410 2530 c-112 -14 -148 -25 -259 -77 -111 -54 -193 -120 -270
-218 -195 -247 -245 -593 -132 -904 170 -467 692 -673 1150 -454 49 24 153 97
201 141 34 32 130 156 130 168 0 7 3 14 8 16 8 4 45 79 62 128 7 19 16 44 20
55 47 121 47 440 0 560 -5 11 -18 47 -31 80 -48 127 -149 261 -254 340 -22 17
-46 36 -53 42 -18 17 -158 83 -176 83 -8 0 -18 5 -21 10 -3 6 -17 10 -31 10
-14 0 -33 4 -42 9 -25 12 -226 20 -302 11z m214 -251 c22 -6 59 -16 81 -22
170 -48 325 -229 370 -431 26 -115 17 -275 -20 -385 -92 -271 -335 -428 -604
-391 -299 41 -491 282 -491 617 0 130 17 204 72 320 26 55 128 173 179 208 33
23 97 52 139 65 25 7 56 16 70 20 37 12 157 12 204 -1z"/>
<path d="M29965 2533 c-47 -3 -106 -16 -150 -33 -11 -4 -36 -14 -55 -21 -87
-32 -208 -140 -246 -220 -36 -75 -44 -112 -44 -205 1 -174 47 -264 193 -381
24 -20 128 -69 172 -83 22 -7 49 -16 60 -21 18 -7 37 -11 105 -25 125 -25 249
-76 307 -127 72 -64 95 -176 50 -248 -110 -179 -460 -191 -642 -21 -32 29
-141 153 -152 171 -2 4 -84 -84 -129 -139 -16 -19 -32 -36 -36 -38 -25 -11 1
-52 85 -136 73 -73 109 -101 170 -131 78 -37 97 -44 217 -70 116 -27 287 -17
415 23 125 39 251 144 302 252 63 133 71 285 21 393 -26 55 -133 177 -156 177
-6 0 -17 6 -24 13 -37 37 -191 96 -383 146 -225 60 -304 121 -313 240 -2 32 1
75 8 95 18 55 96 119 177 144 71 23 174 29 215 13 13 -5 41 -14 63 -21 63 -20
149 -84 201 -150 26 -33 49 -60 52 -60 2 0 43 39 90 86 97 98 97 93 13 186
-42 47 -149 128 -169 128 -5 0 -23 7 -40 15 -71 36 -240 58 -377 48z"/>
<path d="M20362 1663 l3 -848 525 0 525 0 0 120 0 120 -389 6 c-315 5 -390 9
-397 20 -5 8 -9 332 -9 722 l0 707 -130 0 -130 0 2 -847z"/>
<path d="M21677 2503 c-4 -3 -7 -256 -7 -562 0 -512 2 -562 19 -631 46 -181
140 -312 296 -411 151 -96 384 -124 589 -70 159 41 336 194 410 354 60 131 68
224 64 812 l-3 510 -122 3 -122 3 -4 -543 c-4 -553 -6 -584 -44 -668 -15 -31
-61 -98 -88 -125 -30 -31 -113 -79 -185 -106 -59 -22 -196 -17 -265 10 -128
51 -216 143 -259 273 -12 34 -16 157 -22 601 l-7 557 -122 0 c-67 0 -125 -3
-128 -7z"/>
<path d="M23277 2503 c-4 -3 -7 -57 -7 -119 l0 -114 238 -2 237 -3 5 -725 5
-725 119 -3 c78 -2 123 1 132 9 12 10 14 128 14 730 l0 719 240 0 240 0 0 120
0 120 -608 0 c-335 0 -612 -3 -615 -7z"/>
<path d="M24699 2508 c0 -2 -3 -46 -6 -99 -7 -141 -10 -138 145 -141 l127 -3
0 -600 0 -600 -110 -2 c-170 -4 -156 7 -153 -131 l3 -117 389 -3 c279 -1 393
1 402 9 10 8 14 40 14 119 0 89 -3 109 -16 114 -9 3 -72 6 -140 6 l-124 0 0
605 0 605 124 0 c162 0 159 -2 153 134 l-4 101 -402 3 c-220 1 -401 1 -402 0z"/>
<path d="M27647 2033 c-3 -263 -2 -644 1 -848 l7 -370 120 0 120 0 9 280 c8
274 -1 651 -23 885 -5 52 -6 98 -3 102 4 3 77 -86 162 -199 139 -184 331 -433
363 -473 7 -8 23 -31 37 -50 13 -19 27 -37 30 -40 3 -3 17 -21 30 -40 13 -19
27 -37 30 -40 4 -3 58 -72 120 -155 62 -82 136 -178 164 -213 l50 -63 110 3
111 3 7 40 c9 52 10 914 1 1333 l-6 322 -124 0 -123 0 0 -510 c0 -294 5 -551
11 -608 6 -54 9 -116 7 -138 -3 -38 -9 -31 -488 608 l-485 647 -116 1 -116 0
-6 -477z"/>
<path d="M2840 2389 c-202 -18 -338 -101 -452 -276 -58 -89 -93 -178 -117
-301 -14 -70 -14 -270 0 -346 40 -212 150 -373 303 -445 100 -47 155 -56 331
-55 146 0 167 3 240 27 96 32 219 98 223 118 1 9 -18 59 -42 112 -49 103 -58
111 -104 79 -35 -24 -97 -52 -142 -65 -55 -16 -228 -20 -264 -7 -73 28 -95 42
-124 75 -42 47 -82 138 -82 184 0 33 9 36 145 46 44 3 99 10 123 15 110 25
138 32 157 40 11 4 36 14 55 21 51 19 141 82 180 125 18 21 47 68 64 104 26
55 31 80 34 160 3 79 0 105 -18 153 -68 182 -239 261 -510 236z m176 -259 c14
-14 33 -39 40 -57 61 -142 -89 -278 -328 -298 -40 -3 -82 -8 -93 -10 -37 -8
-44 6 -34 65 12 67 22 96 62 178 52 107 131 153 254 149 61 -2 76 -6 99 -27z"/>
<path d="M4175 2393 c-52 -3 -109 -17 -160 -39 -17 -7 -41 -17 -55 -22 -39
-15 -145 -98 -190 -149 -108 -123 -160 -290 -160 -513 1 -265 74 -458 223
-582 121 -100 234 -132 442 -125 180 7 269 32 387 111 26 17 48 37 48 44 0 16
-98 189 -112 198 -7 4 -14 2 -16 -4 -2 -7 -8 -12 -14 -12 -5 0 -22 -8 -36 -19
-15 -10 -56 -29 -92 -42 -79 -28 -224 -33 -280 -10 -80 33 -153 119 -181 214
-17 54 -39 199 -39 252 0 53 22 189 38 240 28 90 88 162 160 192 48 20 159 28
208 14 62 -17 73 -34 75 -123 1 -42 5 -82 9 -89 6 -9 37 -11 119 -6 61 3 115
8 121 12 6 4 10 72 10 179 l0 173 -42 21 c-129 63 -293 93 -463 85z"/>
<path d="M8860 2389 c-177 -14 -348 -111 -438 -248 -91 -136 -122 -258 -122
-473 0 -143 16 -254 50 -343 16 -43 55 -120 63 -123 4 -2 7 -8 7 -14 0 -10 7
-19 73 -86 76 -78 173 -123 310 -143 246 -36 488 63 615 253 84 126 117 239
129 435 15 261 -52 482 -182 602 -52 47 -186 121 -220 121 -9 0 -24 4 -33 9
-23 12 -161 17 -252 10z m185 -259 c114 -55 165 -196 165 -453 0 -327 -91
-477 -290 -477 -165 0 -242 91 -275 324 -36 255 -1 459 95 556 54 54 90 68
189 69 56 1 85 -4 116 -19z"/>
<path d="M10590 2390 c-116 -11 -217 -58 -307 -143 l-53 -50 0 70 c0 40 -5 74
-12 81 -13 13 -401 18 -432 6 -13 -5 -16 -24 -16 -109 0 -116 -1 -115 81 -115
57 0 88 -24 90 -67 1 -16 0 -203 -1 -418 -2 -432 0 -418 -68 -429 -20 -4 -50
-9 -65 -12 l-28 -6 3 -101 3 -102 314 -3 c245 -2 316 1 323 10 9 15 11 179 2
202 -5 12 -21 16 -75 16 l-69 0 0 359 c0 397 0 397 66 478 44 53 118 83 209
83 108 0 161 -35 192 -124 15 -45 18 -94 18 -407 0 -278 -3 -359 -13 -372 -7
-8 -36 -18 -65 -22 -94 -12 -88 -4 -85 -118 l3 -102 320 0 320 0 0 110 0 110
-71 3 -71 3 -6 417 c-6 439 -6 445 -56 554 -37 83 -119 149 -226 186 -39 14
-144 19 -225 12z"/>
<path d="M12285 2393 c-66 -4 -141 -25 -200 -56 -11 -6 -31 -16 -44 -23 -14
-7 -46 -33 -71 -58 -26 -26 -52 -46 -58 -46 -7 0 -12 29 -14 73 l-3 72 -214 3
c-149 2 -218 -1 -227 -9 -10 -8 -14 -37 -14 -100 0 -107 8 -119 84 -119 97 0
91 31 94 -445 3 -477 6 -459 -75 -470 -93 -12 -93 -12 -93 -120 0 -90 1 -95
23 -100 12 -3 157 -4 322 -3 l300 3 3 112 3 112 -73 3 -73 3 1 360 c0 397 0
396 66 470 48 55 100 78 193 83 125 7 184 -30 213 -134 18 -63 17 -751 -1
-769 -8 -7 -39 -16 -69 -20 -30 -4 -60 -10 -67 -14 -8 -5 -11 -38 -9 -107 l3
-99 320 0 320 0 0 110 0 110 -75 5 -75 5 -5 425 c-4 380 -7 430 -23 475 -74
201 -212 281 -462 268z"/>
<path d="M13730 2389 c-41 -3 -91 -11 -110 -17 -19 -6 -46 -14 -60 -18 -64
-19 -186 -106 -229 -163 -14 -20 -34 -45 -43 -55 -10 -11 -18 -25 -18 -32 0
-7 -3 -14 -7 -16 -5 -1 -19 -25 -32 -53 -13 -27 -27 -57 -31 -65 -4 -8 -13
-40 -20 -70 -7 -30 -16 -68 -21 -84 -14 -47 -11 -304 5 -376 47 -213 136 -340
291 -414 106 -51 161 -61 330 -61 125 0 163 4 228 23 109 31 247 103 247 129
0 6 -9 28 -20 50 -11 21 -31 64 -45 96 -14 31 -31 57 -37 57 -6 0 -47 -18 -92
-39 -44 -21 -100 -44 -122 -50 -54 -14 -205 -14 -241 0 -77 32 -93 42 -122 74
-17 19 -38 50 -48 68 -23 45 -44 135 -32 143 6 3 67 12 137 19 70 8 138 17
152 20 14 3 45 11 70 17 103 23 215 82 277 145 190 194 154 522 -68 625 -102
48 -194 60 -339 47z m161 -252 c18 -12 39 -34 46 -47 17 -34 16 -125 -1 -158
-48 -91 -199 -156 -381 -163 -78 -3 -77 -3 -70 39 20 122 75 244 134 292 74
62 208 80 272 37z"/>
<path d="M15065 2393 c-111 -6 -227 -55 -327 -138 -129 -106 -183 -201 -227
-397 -14 -61 -14 -301 0 -370 14 -68 29 -127 40 -155 75 -190 213 -314 400
-358 133 -31 350 -15 479 37 58 23 153 79 164 97 7 10 -87 196 -104 206 -4 3
-33 -11 -65 -29 -83 -51 -156 -71 -255 -71 -90 0 -133 12 -187 52 -119 87
-180 337 -139 568 8 44 17 89 21 100 56 165 202 246 370 204 65 -16 74 -31 77
-129 l3 -85 111 1 c61 0 118 4 127 7 15 6 17 27 17 175 0 190 2 184 -80 216
-145 57 -267 76 -425 69z"/>
</g>
</svg>
